<svg width="30" height="30" viewBox="0 0 30 30" fill="none" xmlns="http://www.w3.org/2000/svg">
<path d="M21 30H8.85005C6.37505 30 4.42505 27.975 4.42505 25.575V12C4.42505 11.55 4.72505 11.25 5.17505 11.25C5.62505 11.25 5.92505 11.55 5.92505 12V25.575C5.92505 27.225 7.27505 28.5 8.85005 28.5H21C22.65 28.5 23.925 27.15 23.925 25.575V12C23.925 11.55 24.2251 11.25 24.6751 11.25C25.1251 11.25 25.4251 11.55 25.4251 12V25.575C25.4251 27.975 23.4 30 21 30Z" fill="black"/>
<path d="M24.975 3.675H19.275C18.9 1.575 17.1 0 14.925 0C12.75 0 10.95 1.575 10.575 3.675H4.87505C3.15005 3.675 1.80005 5.025 1.80005 6.75C1.80005 8.475 3.15005 9.75 4.87505 9.75H25.0501C26.7751 9.75 28.125 8.4 28.125 6.675C28.125 4.95 26.7 3.675 24.975 3.675ZM14.925 1.5C16.275 1.5 17.4 2.4 17.7 3.675H12.075C12.45 2.4 13.575 1.5 14.925 1.5ZM24.975 8.25H4.87505C4.05005 8.25 3.30005 7.575 3.30005 6.675C3.30005 5.85 3.97505 5.1 4.87505 5.1H25.0501C25.8751 5.1 26.625 5.775 26.625 6.675C26.55 7.575 25.875 8.25 24.975 8.25Z" fill="black"/>
<path d="M9.67505 26.325C9.22505 26.325 8.92505 26.025 8.92505 25.575V13.05C8.92505 12.6 9.22505 12.3 9.67505 12.3C10.125 12.3 10.425 12.6 10.425 13.05V25.575C10.425 25.95 10.05 26.325 9.67505 26.325Z" fill="black"/>
<path d="M20.175 26.325C19.725 26.325 19.425 26.025 19.425 25.575V13.05C19.425 12.6 19.725 12.3 20.175 12.3C20.625 12.3 20.925 12.6 20.925 13.05V25.575C20.925 25.95 20.55 26.325 20.175 26.325Z" fill="black"/>
<path d="M14.925 26.325C14.475 26.325 14.175 26.025 14.175 25.575V13.05C14.175 12.6 14.475 12.3 14.925 12.3C15.375 12.3 15.675 12.6 15.675 13.05V25.575C15.675 25.95 15.3 26.325 14.925 26.325Z" fill="black"/>
</svg>
